<svg width="24" height="27" viewBox="0 0 24 27" fill="none" xmlns="http://www.w3.org/2000/svg">
<g id="Group">
<path id="Vector" d="M2.18182 2.6814H21.8182C23.0269 2.6814 24 3.65449 24 4.86321V10.3178H0V4.86321C0 3.65449 0.973091 2.6814 2.18182 2.6814Z" fill="#0D6C70"/>
<path id="Vector_2" d="M0.5 24.4995V9.72681H23.5V24.4995C23.5 25.4321 22.7508 26.1814 21.8182 26.1814H2.18182C1.24923 26.1814 0.5 25.4321 0.5 24.4995Z" fill="white" stroke="#0C6165"/>
<path id="Vector_3" d="M6.54534 1.59091C6.54534 0.988417 6.05693 0.5 5.45443 0.5C4.85194 0.5 4.36353 0.988417 4.36353 1.59091V5.95455C4.36353 6.55704 4.85194 7.04546 5.45443 7.04546C6.05693 7.04546 6.54534 6.55704 6.54534 5.95455V1.59091Z" fill="#0D6C70"/>
<path id="Vector_4" d="M19.6364 1.59091C19.6364 0.988417 19.148 0.5 18.5455 0.5C17.943 0.5 17.4546 0.988417 17.4546 1.59091V5.95455C17.4546 6.55704 17.943 7.04546 18.5455 7.04546C19.148 7.04546 19.6364 6.55704 19.6364 5.95455V1.59091Z" fill="#0D6C70"/>
<path id="Vector_5" d="M19.6364 11.4092H17.4546V13.591H19.6364V11.4092Z" fill="#0C6165"/>
<path id="Vector_6" d="M15.2726 11.4092H13.0908V13.591H15.2726V11.4092Z" fill="#0C6165"/>
<path id="Vector_7" d="M10.9091 11.4092H8.72729V13.591H10.9091V11.4092Z" fill="#0C6165"/>
<path id="Vector_8" d="M6.54534 11.4092H4.36353V13.591H6.54534V11.4092Z" fill="#0C6165"/>
<path id="Vector_9" d="M19.6364 15.7732H17.4546V17.955H19.6364V15.7732Z" fill="#0C6165"/>
<path id="Vector_10" d="M15.2726 15.7732H13.0908V17.955H15.2726V15.7732Z" fill="#0C6165"/>
<path id="Vector_11" d="M10.9091 15.7732H8.72729V17.955H10.9091V15.7732Z" fill="#0C6165"/>
<path id="Vector_12" d="M6.54534 15.7732H4.36353V17.955H6.54534V15.7732Z" fill="#0C6165"/>
<path id="Vector_13" d="M15.2726 20.1362H13.0908V22.318H15.2726V20.1362Z" fill="#0C6165"/>
<path id="Vector_14" d="M10.9091 20.1362H8.72729V22.318H10.9091V20.1362Z" fill="#0C6165"/>
<path id="Vector_15" d="M6.54534 20.1362H4.36353V22.318H6.54534V20.1362Z" fill="#0C6165"/>
</g>
</svg>
