<svg width="19" height="16" viewBox="0 0 19 16" fill="none" xmlns="http://www.w3.org/2000/svg">
<path id="Vector" d="M7.15462 11.397C10.7052 7.30224 14.6359 3.31514 18.9425 0.00722192C18.9489 0.00237073 18.9568 -0.000170191 18.9649 8.85407e-06C18.9729 0.000187899 18.9807 0.00307671 18.9869 0.00820906C18.9931 0.0133414 18.9975 0.0204181 18.9992 0.0282986C19.0009 0.0361791 18.9999 0.0444038 18.9963 0.0516465C18.7901 0.465136 18.5677 0.876917 18.3291 1.28699C15.2442 6.59316 11.4732 11.3654 7.557 15.983C7.53935 16.0035 7.5197 16.0055 7.49806 15.9889C4.78303 13.9027 2.30978 11.35 0.637882 8.33768C0.563272 8.20326 0.514291 8.06942 0.490939 7.93615C0.48946 7.9271 0.490318 7.91782 0.493429 7.9092C0.49654 7.90058 0.501797 7.89293 0.508686 7.88699C0.515575 7.88105 0.52386 7.87702 0.53273 7.8753C0.541599 7.87359 0.55075 7.87424 0.559285 7.8772C2.93685 8.67599 5.0735 9.9156 7.06065 11.4064C7.07459 11.417 7.09204 11.422 7.10949 11.4202C7.12693 11.4185 7.14306 11.4102 7.15462 11.397Z" fill="#0D6C70"/>
</svg>
